# xmcd
#
# Track frame offsets:
#	150
#	11013
#	24140
#	34192
#	44927
#	61154
#	79770
#	88320
#	100465
#	110102
#	124469
#	135026
#	155001
#	167250
#	185748
#	199279
#	209742
#	223212
#	234587
#
# Disc length: 3357 seconds
#
# Revision: 0
# Processed by: cddbd v1.5.2PL0 Copyright (c) Steve Scherf et al.
# Submitted via: EasyCDDAExtractor 11.1.0.1
#
DISCID=1b0d1b13
DTITLE=Bjarne Andersen - High noon
DYEAR=2009
DGENRE=country/pop
TTITLE0=High noon
TTITLE1=Plaisir d'amour
TTITLE2=Young and beautiful
TTITLE3=Bye bye love
TTITLE4=That's when your heartaches begin
TTITLE5=Danny boy
TTITLE6=As long as I have you
TTITLE7=Smoke gets in your eyes
TTITLE8=King of the whole world
TTITLE9=Unchained melody
TTITLE10=Judy
TTITLE11=Bridge over troubled water
TTITLE12=I'm left you're right she's gone
TTITLE13=You raise me up
TTITLE14=Lonesome cowboy
TTITLE15=Wear my ring
TTITLE16=Some broken hearts never mend
TTITLE17=Save the last dance for me
TTITLE18=My way
EXTD=
EXTT0=
EXTT1=
EXTT2=
EXTT3=
EXTT4=
EXTT5=
EXTT6=
EXTT7=
EXTT8=
EXTT9=
EXTT10=
EXTT11=
EXTT12=
EXTT13=
EXTT14=
EXTT15=
EXTT16=
EXTT17=
EXTT18=
PLAYORDER=
